<!-- Created with Inkscape (http://www.inkscape.org/) -->
<svg width="520" height="189.15" version="1.1" viewBox="0 0 137.58 50.046" xmlns="http://www.w3.org/2000/svg">
 <defs>
  <clipPath id="clipPath1072">
   <path d="m506.16 42.783h65.52v23.833h-65.52z"/>
  </clipPath>
 </defs>
 <g transform="translate(76.536 31.08)">
  <g transform="matrix(2.0999 0 0 -2.0999 -1139.4 108.8)">
   <g clip-path="url(#clipPath1072)">
    <g transform="translate(534.79 59.187)">
     <path d="m0 0c1e-3 0 5e-3 3e-3 6e-3 4e-3 2e-3 2e-3 -6e-3 0-6e-3 -4e-3" fill="#756462"/>
    </g>
    <g transform="translate(524.24 50.118)">
     <path d="m0 0c-0.268-0.773-2.575-7.335-2.575-7.335h2.075l6.798 14.946c-4.903-1.715-5.149-4.285-6.298-7.611" fill="#756462"/>
    </g>
    <g transform="translate(552.6 55.055)">
     <path d="m0 0c-9e-3 0.015-0.023 0.038-0.038 0.061-0.03 0.048-0.081 0.074-0.133 0.074-0.029 0-0.061-8e-3 -0.087-0.026-0.065-0.044-0.086-0.128-0.052-0.199 1.448-2.971 1.053-8.086-5.454-6.071-0.067 0.02-0.154 0.054-0.255 0.095-0.06 0.025-0.122 0.054-0.189 0.081 1.983 1.196 3.895 3.576 4.355 5.265 3e-3 0.011 5e-3 0.022 5e-3 0.032 0 0.046-0.027 0.088-0.069 0.111-0.062 0.032-0.137 9e-3 -0.169-0.054-1.859-3.537-5.105-4.939-6.822-4.528-1.087 0.259-2.423 1.283-2.959 2.681 1.286-1.804 2.967-2.556 5.234-1.695 0.693 2.977 0.309 5.102-1.412 6.938-0.017 0.271-0.057 0.861-0.057 0.861s-0.773 0.456-0.878 0.693c-0.106 0.241-0.041 0.955-0.025 1.052-0.326 0.07-0.614 0.61-1.099 0.805 0.039 0.2 0.878 0.355 0.898 0.543-0.479-0.028-1.053 0.191-1.876 0.135 5e-3 0.059 0.786 0.597 0.933 0.975-2.975-0.785-3.383-0.144-5.134-1.234-0.7-0.74-2.332-2.389-2.516-2.46-1e-3 0-2e-3 -2e-3 -6e-3 -3e-3l-6.918-16.403h2.183c1.138 2.973 3.665 2.96 5.124 2.968-0.085-0.564-0.426-1.988-0.707-2.968h2.474c0.48 2.16 1.408 2.001 2.149 3.636-0.03-1.124 0.401-3.636 0.401-3.636h3.131c-0.545 1.715-0.965 5.135-0.636 6.202 0.296-0.209 0.533-0.409 1.065-0.536-0.332-1.695 0.055-4.147 2.535-4.907 0.142 0.386 0.503 0.661 0.939 0.661 0.03 0 0.06-2e-3 0.089-4e-3 0.039 0.172 0.089 0.334 0.139 0.437-0.684-0.135-1.309 0.243-1.543 0.731-0.342 0.711-0.191 1.707 0.224 2.436 9.016-2.28 9.22 3.688 7.156 7.251" fill="#756462"/>
    </g>
    <g transform="translate(545.59 43.543)">
     <path d="m0 0c-2.48 0.76-2.866 3.212-2.534 4.907-0.533 0.127-0.769 0.327-1.066 0.536-0.328-1.067 0.091-4.487 0.636-6.203h3.309z" fill="#ea2229"/>
    </g>
    <g transform="translate(516.41 55.664)">
     <path d="m0 0c-0.876-0.768-2.189-1.153-3.939-1.153-0.384 0-0.774 0.01-1.169 0.032-0.395 0.021-0.774 0.053-1.137 0.096v8.007c0.405 0.085 0.833 0.138 1.281 0.16 0.448 0.021 0.918 0.032 1.409 0.032 1.537 0 2.733-0.368 3.587-1.105s1.281-1.703 1.281-2.898c0-1.346-0.438-2.402-1.313-3.171m4.356-0.705c0.789 1.175 1.185 2.53 1.185 4.068 0 1.046-0.187 2.017-0.561 2.914-0.373 0.897-0.955 1.676-1.745 2.338s-1.789 1.185-2.994 1.569c-1.207 0.385-2.643 0.577-4.308 0.577-1.196 0-2.29-0.038-3.283-0.112-0.993-0.075-1.959-0.166-2.898-0.273v-23.256h4.003v8.492c0.384-0.021 0.774-0.037 1.169-0.047 0.395-0.011 0.785-0.016 1.169-0.016h0.64c0.193 0 0.395 0.01 0.609 0.031l5.124-8.46h2.793s0.276 0.787 0.649 1.847l-4.947 7.606c1.473 0.641 2.605 1.548 3.395 2.722" fill="#ea2229"/>
    </g>
    <g transform="translate(548.07 47.34)">
     <path d="m0 0-0.19-4.556h3.939l0.094 5.183c-0.879-0.516-2.13-0.774-3.843-0.627" fill="#ea2229"/>
    </g>
    <g transform="translate(570.69 66.553)">
     <path d="m0 0-0.641 0.064-10.152-15.565-10.408 15.565-0.609-0.064-0.627-15.006c0.837 0.722 1.629 1.676 2.26 2.877 0.032 0.063 0.107 0.086 0.169 0.054 0.042-0.023 0.069-0.065 0.069-0.11 0-0.01-2e-3 -0.022-5e-3 -0.033-0.314-1.154-1.307-2.63-2.536-3.831l-0.081-1.934c1.832-0.339 3.055-2e-3 3.815 0.7l0.139 7.611 7.462-11.241h0.48l7.398 11.209 0.321-14.065h3.939z" fill="#ea2229"/>
    </g>
    <g transform="translate(536.61 63.357)">
     <path d="m0 0-1.464 3.228h-0.577l-4.027-8.856-6.797-14.945h4.131l6.918 16.402c0 4e-3 8e-3 6e-3 6e-3 4e-3 0.184 0.071 1.816 1.72 2.516 2.46 0.018 0.011 0.035 0.021 0.053 0.032z" fill="#ea2229"/>
    </g>
   </g>
  </g>
 </g>
</svg>
